<?xml version="1.0" encoding="utf-8"?>
<!-- Generator: Adobe Illustrator 16.0.0, SVG Export Plug-In . SVG Version: 6.00 Build 0)  -->
<!DOCTYPE svg PUBLIC "-//W3C//DTD SVG 1.1//EN" "http://www.w3.org/Graphics/SVG/1.1/DTD/svg11.dtd">
<svg version="1.1"
	 id="Layer_1" xmlns:dc="http://purl.org/dc/elements/1.1/" xmlns:cc="http://web.resource.org/cc/" xmlns:rdf="http://www.w3.org/1999/02/22-rdf-syntax-ns#" xmlns:svg="http://www.w3.org/2000/svg" xmlns:sodipodi="http://sodipodi.sourceforge.net/DTD/sodipodi-0.dtd" xmlns:inkscape="http://www.inkscape.org/namespaces/inkscape" sodipodi:docbase="C:\Documents and Settings\ltljltlj\Desktop\Signs\Interstate Shields" sodipodi:docname="Interstate Route 2-Digit Future Template.svg" inkscape:version="0.45" sodipodi:version="0.32" sodipodi:modified="true" inkscape:output_extension="org.inkscape.output.svg.inkscape"
	 xmlns="http://www.w3.org/2000/svg" xmlns:xlink="http://www.w3.org/1999/xlink" x="0px" y="0px" width="601px" height="601px"
	 viewBox="0 0 601 601" enable-background="new 0 0 601 601" xml:space="preserve">
<sodipodi:namedview  inkscape:cy="299.49944" inkscape:cx="300.49997" inkscape:zoom="1.2845255" height="601px" pagecolor="#ffffff" bordercolor="#666666" guidetolerance="10.0" objecttolerance="10.0" gridtolerance="10.0" borderopacity="1.0" id="base" width="601px" inkscape:current-layer="Layer_1" inkscape:window-y="-4" inkscape:window-x="-4" inkscape:pageopacity="0.0" inkscape:pageshadow="2" inkscape:window-width="1280" inkscape:window-height="968">
	</sodipodi:namedview>
<g id="g1600" transform="matrix(0.9983361,0,0,0.9983377,0.4991681,0.4986859)">
	<path id="path1602" fill="#FFFFFF" stroke="#000000" stroke-width="1" d="M80.888,0.001
		c34.734,10.601,71.604,16.304,109.807,16.304c38.202,0,75.072-5.703,109.806-16.303c34.734,10.601,71.604,16.303,109.806,16.303
		s75.073-5.703,109.807-16.304c50.65,64.015,80.888,144.919,80.888,232.887c0,181.726-129.045,333.308-300.5,368.111
		c-171.455-34.803-300.5-186.385-300.5-368.111C0.001,144.92,30.239,64.015,80.888,0.001z"/>
	<path id="path1604" fill="#FFFFFF" stroke="#000000" stroke-width="1" stroke-linecap="round" stroke-linejoin="round" d="
		M80.888,0.001c34.734,10.601,71.604,16.304,109.807,16.304c38.202,0,75.072-5.703,109.806-16.303
		c34.734,10.601,71.604,16.303,109.806,16.303s75.073-5.703,109.807-16.304c50.65,64.015,80.888,144.919,80.888,232.887
		c0,181.726-129.045,333.308-300.5,368.111c-171.455-34.803-300.5-186.385-300.5-368.111C0.001,144.92,30.239,64.015,80.888,0.001z"
		/>
</g>
<g id="g1606" transform="matrix(1.0070935,0,0,1.0102847,-2.1280324,-3.66885)">
	<path id="path1608" fill="#003F87" d="M15.021,232.882c0-32.032,4.176-63.089,12.014-92.655h546.921
		c7.838,29.567,12.014,60.623,12.014,92.655c0,173.393-122.377,318.201-285.475,352.763
		C137.399,551.083,15.021,406.275,15.021,232.882z"/>
</g>
<g id="g1610" transform="matrix(1.0125461,0,0,1.0271486,-3.7638021,-3.1017482)">
	<path id="path1612" fill="#AF1E2D" d="M31.37,125.203c12.275-39.286,31.09-75.685,55.171-107.919
		c33.156,9.148,68.081,14.036,104.147,14.036c38.124,0,74.972-5.461,109.806-15.644C335.327,25.859,372.176,31.32,410.3,31.32
		c36.066,0,70.991-4.888,104.147-14.036c24.08,32.234,42.894,68.633,55.17,107.919H31.37L31.37,125.203z"/>
</g>
<g enable-background="new    ">
	<path fill="#FFFFFF" d="M105.73,441.125c0.496-14.675,2.361-28.107,5.597-40.298c3.229-12.185,8.331-24.253,15.298-36.193
		c5.224-9.45,11.689-18.219,19.402-26.305c7.708-8.081,15.916-15.356,24.626-21.828c2.239-1.242,4.227-2.548,5.97-3.918
		c1.737-1.364,3.48-2.67,5.224-3.918l13.433-7.089l12.313-7.09l11.94-6.716c4.973-3.23,9.014-7.276,12.127-12.127
		c3.107-4.851,4.664-9.888,4.664-15.111c0-4.723-1.248-9.142-3.731-13.246c-2.489-4.104-5.784-7.649-9.888-10.634
		c-4.104-2.985-8.897-5.346-14.365-7.089c-5.475-1.737-11.322-2.612-17.537-2.612c-12.686,0-22.947,2.985-30.783,8.955
		c-7.835,5.97-12.75,14.68-14.738,26.119l-39.551-8.582c4.227-20.896,13.928-37.249,29.104-49.066
		c15.169-11.812,33.826-17.724,55.968-17.724c11.94,0,23.07,1.994,33.395,5.97c10.319,3.982,19.274,9.328,26.865,16.044
		c7.585,6.716,13.619,14.616,18.096,23.693c4.478,9.083,6.716,18.721,6.716,28.917c0,9.701-2.18,19.216-6.53,28.544
		c-4.355,9.328-10.634,17.602-18.843,24.812c-1.994,1.493-3.795,2.863-5.41,4.104c-1.621,1.248-3.3,2.239-5.037,2.985l-12.313,7.836
		l-13.433,7.089l-12.313,7.09c-5.97,3.486-11.258,7.153-15.858,11.007c-4.605,3.859-8.833,8.022-12.686,12.5
		c-3.859,4.478-7.462,9.456-10.821,14.925c-3.358,5.475-6.529,11.695-9.515,18.656h122.758v40.298H105.73z"/>
	<path fill="#FFFFFF" d="M495.271,369.111c0,10.698-2.181,20.709-6.53,30.037c-4.354,9.328-10.324,17.414-17.909,24.253
		c-7.591,6.845-16.604,12.255-27.052,16.231c-10.447,3.976-21.641,5.97-33.581,5.97s-23.134-2.052-33.581-6.156
		s-19.467-9.76-27.051-16.978c-7.592-7.212-13.562-15.672-17.91-25.373c-4.355-9.701-6.53-20.148-6.53-31.342
		c0-17.409,2.298-34.701,6.903-51.865c4.6-17.164,11.129-33.582,19.589-49.253c8.454-15.671,18.592-30.159,30.409-43.469
		c11.812-13.304,24.936-24.812,39.365-34.514l20.148,33.582c-7.713,5.97-14.494,11.753-20.336,17.351
		c-5.848,5.597-11.193,11.38-16.044,17.35c-4.851,5.97-9.27,12.255-13.245,18.843c-3.982,6.594-7.836,13.87-11.567,21.828
		c7.212-1.242,12.744-1.988,16.604-2.239c3.854-0.245,8.267-0.373,13.245-0.373c11.438,0,22.323,1.994,32.648,5.97
		c10.319,3.982,19.402,9.393,27.238,16.231c7.835,6.844,13.991,14.925,18.47,24.253
		C493.031,348.776,495.271,358.664,495.271,369.111z M455.719,368.365c0-4.722-1.183-9.328-3.544-13.806
		c-2.367-4.478-5.597-8.331-9.701-11.566c-4.104-3.23-8.955-5.842-14.552-7.836c-5.598-1.988-11.509-2.985-17.724-2.985
		c-6.221,0-12.004,0.997-17.351,2.985c-5.352,1.994-10.074,4.605-14.178,7.836c-4.105,3.235-7.34,7.089-9.701,11.566
		c-2.367,4.478-3.545,9.084-3.545,13.806c0,4.979,1.178,9.701,3.545,14.179c2.361,4.478,5.596,8.396,9.701,11.754
		c4.104,3.357,8.826,6.034,14.178,8.021c5.347,1.994,11.13,2.985,17.351,2.985c6.215,0,12.062-0.991,17.537-2.985
		c5.468-1.987,10.261-4.664,14.365-8.021c4.104-3.358,7.398-7.276,9.888-11.754C454.472,378.066,455.719,373.345,455.719,368.365z"
		/>
</g>
<path id="text6060" fill="#FFFFFF" d="M184.218,59.272v15.762H196.7v8.583h-12.482V113h-8.943v-62.5h31.765v8.771H184.218z
	 M250.872,94.343c0,1.245-0.046,2.365-0.139,3.359c-0.093,0.994-0.233,1.911-0.419,2.751c-0.187,0.84-0.436,1.664-0.746,2.473
	c-0.311,0.809-0.684,1.617-1.117,2.425c-1.552,2.551-3.679,4.649-6.381,6.297s-5.543,2.471-8.524,2.471
	c-3.104,0-6.039-0.809-8.802-2.426c-2.764-1.617-4.922-3.731-6.475-6.342c-0.434-0.809-0.806-1.617-1.117-2.425
	s-0.56-1.633-0.746-2.473c-0.187-0.84-0.327-1.757-0.419-2.751c-0.093-0.995-0.139-2.114-0.139-3.359V50.501h8.943v44.964
	c0,2.983,0.807,5.377,2.422,7.181c1.615,1.804,3.726,2.706,6.333,2.706c2.422,0,4.425-0.902,6.008-2.706
	c1.583-1.804,2.375-4.198,2.375-7.181V50.501h8.943V94.343L250.872,94.343z M279.979,58.805V113h-9.034V58.805h-11.366v-8.304
	h31.765v8.304H279.979z M334.926,94.343c0,1.245-0.047,2.365-0.14,3.359c-0.093,0.994-0.232,1.911-0.419,2.751
	s-0.436,1.664-0.746,2.473c-0.312,0.809-0.684,1.617-1.117,2.425c-1.553,2.551-3.68,4.649-6.381,6.297s-5.543,2.471-8.523,2.471
	c-3.104,0-6.039-0.809-8.803-2.426c-2.765-1.617-4.922-3.731-6.475-6.342c-0.434-0.809-0.807-1.617-1.117-2.425
	c-0.311-0.809-0.56-1.633-0.746-2.473c-0.187-0.84-0.327-1.757-0.419-2.751c-0.093-0.995-0.139-2.114-0.139-3.359V50.501h8.943
	v44.964c0,2.983,0.807,5.377,2.422,7.181c1.614,1.804,3.726,2.706,6.334,2.706c2.422,0,4.424-0.902,6.008-2.706
	c1.583-1.804,2.375-4.198,2.375-7.181V50.501h8.943V94.343L334.926,94.343z M374.28,113l-8.292-29.384h-8.568V113h-8.943v-62.5
	h18.632c2.422,0,4.642,0.404,6.66,1.213s3.758,1.928,5.217,3.359c1.459,1.431,2.577,3.188,3.353,5.271
	c0.776,2.083,1.164,4.368,1.164,6.856c0,3.731-0.745,6.903-2.235,9.516s-3.727,4.477-6.707,5.595l8.942,30.69H374.28z
	 M374.747,67.199c0-2.425-0.746-4.353-2.236-5.783s-3.446-2.145-5.868-2.145h-9.223v15.762h9.223c2.607,0,4.61-0.668,6.008-2.005
	S374.747,69.748,374.747,67.199L374.747,67.199z M393.961,113v-62.5h29.343v8.771h-20.399v15.762h12.948v8.583h-12.948v20.616
	h22.821V113H393.961z"/>
</svg>
