<?xml version="1.0" encoding="UTF-8" standalone="no"?>
<svg xmlns:dc="http://purl.org/dc/elements/1.1/" xmlns:cc="http://creativecommons.org/ns#" xmlns:rdf="http://www.w3.org/1999/02/22-rdf-syntax-ns#" xmlns:svg="http://www.w3.org/2000/svg" xmlns="http://www.w3.org/2000/svg" xmlns:sodipodi="http://sodipodi.sourceforge.net/DTD/sodipodi-0.dtd" xmlns:inkscape="http://www.inkscape.org/namespaces/inkscape" width="200" height="200" viewBox="0 0 32 32.000001" id="svg2" version="1.1" inkscape:version="0.91 r13725" sodipodi:docname="18 office employee person user avatar man businessman.svg">
  <defs id="defs4" style="zoom: 2">
    <pattern y="0" x="0" height="6" width="6" patternUnits="userSpaceOnUse" id="EMFhbasepattern"/>
    <pattern y="0" x="0" height="6" width="6" patternUnits="userSpaceOnUse" id="EMFhbasepattern-1"/>
    <inkscape:path-effect effect="spiro" id="path-effect4381-9-5-8" is_visible="true"/>
  </defs>
  <sodipodi:namedview id="base" pagecolor="#ffffff" bordercolor="#666666" borderopacity="1.0" inkscape:pageopacity="0.0" inkscape:pageshadow="2" inkscape:zoom="5.6" inkscape:cx="22.212871" inkscape:cy="27.162352" inkscape:document-units="px" inkscape:current-layer="layer1" showgrid="true" units="px" inkscape:window-width="1366" inkscape:window-height="705" inkscape:window-x="-8" inkscape:window-y="-8" inkscape:window-maximized="1" inkscape:snap-bbox="true" inkscape:bbox-paths="true" inkscape:bbox-nodes="true" inkscape:snap-bbox-edge-midpoints="true" inkscape:snap-bbox-midpoints="true">
    <inkscape:grid type="xygrid" id="grid3470"/>
  </sodipodi:namedview>
  
  <g inkscape:label="Layer 1" inkscape:groupmode="layer" id="layer1" transform="translate(0,-1020.3622)">
    <path style="color:#000000;font-style:normal;font-variant:normal;font-weight:normal;font-stretch:normal;font-size:medium;line-height:normal;font-family:sans-serif;text-indent:0;text-align:start;text-decoration:none;text-decoration-line:none;text-decoration-style:solid;text-decoration-color:#000000;letter-spacing:normal;word-spacing:normal;text-transform:none;direction:ltr;block-progression:tb;writing-mode:lr-tb;baseline-shift:baseline;text-anchor:start;white-space:normal;clip-rule:nonzero;display:inline;overflow:visible;visibility:visible;opacity:1;isolation:auto;mix-blend-mode:normal;color-interpolation:sRGB;color-interpolation-filters:linearRGB;solid-color:#000000;solid-opacity:1;fill:#000000;fill-opacity:1;fill-rule:nonzero;stroke:none;stroke-width:0.96970248;stroke-linecap:butt;stroke-linejoin:miter;stroke-miterlimit:4;stroke-dasharray:none;stroke-dashoffset:0;stroke-opacity:1;color-rendering:auto;image-rendering:auto;shape-rendering:auto;text-rendering:auto;enable-background:accumulate" d="M 16 0 C 7.1691662 0 -2.9027921e-005 7.1692 0 16 C 2.7889444e-005 24.8308 7.1692064 32 16 32 C 24.830794 32 31.999972 24.8308 32 16 C 32.000029 7.1692 24.830834 0 16 0 z M 16 0.97070312 C 24.306766 0.97070312 31.031277 7.6933 31.03125 16 C 31.031239 19.491266 29.831805 22.693647 27.837891 25.244141 C 27.426065 24.547278 26.837927 23.952002 26.115234 23.539062 L 20.162109 20.152344 L 20.162109 17.324219 C 20.895736 16.401319 21.351562 15.2158 21.351562 13.9375 L 21.351562 12.335938 C 21.390052 12.215938 21.390052 12.086597 21.351562 11.966797 L 21.351562 10.699219 C 21.350956 10.760219 21.351563 10.766109 21.351562 10.662109 L 21.351562 7.1640625 L 21.351562 7.1269531 L 21.351562 7.0898438 C 21.233726 6.1849438 20.958936 5.3697406 20.421875 4.7441406 C 20.261722 4.5576406 20.070464 4.4014188 19.865234 4.2617188 C 19.117425 4.0480187 18.346068 3.8883812 17.552734 3.8007812 L 17.517578 4.2988281 C 17.505278 4.4870281 17.413367 4.6080406 17.220703 4.7441406 C 17.036628 4.8743406 16.763662 4.9827594 16.513672 5.0058594 L 16.476562 5.0058594 L 13.871094 5.0058594 C 12.081047 5.0058594 10.634766 6.4788969 10.634766 8.2792969 L 10.634766 10.662109 L 10.634766 10.699219 L 10.634766 11.628906 C 10.609686 11.726906 10.609686 11.830734 10.634766 11.927734 L 10.634766 13.9375 C 10.634766 15.2159 11.090591 16.401119 11.824219 17.324219 L 11.824219 20.152344 L 5.9453125 23.501953 C 5.1962711 23.930178 4.5943871 24.540533 4.171875 25.255859 C 2.1723012 22.703444 0.96876104 19.496742 0.96875 16 C 0.96872269 7.6933 7.6932335 0.97070312 16 0.97070312 z M 18.300781 5.0058594 C 18.828675 5.0498594 19.244126 5.1955906 19.527344 5.5253906 C 19.853102 5.9049906 20.063857 6.4855344 20.162109 7.2402344 L 20.162109 10.664062 L 20.162109 10.699219 L 20.162109 10.849609 C 19.919883 10.738509 19.669225 10.634591 19.416016 10.587891 C 18.70703 10.457391 17.984139 10.483925 17.294922 10.515625 C 16.605708 10.543625 15.918997 10.547644 15.396484 10.402344 C 14.87397 10.257944 14.477363 10.033494 14.130859 9.4335938 C 14.007078 9.2011937 13.718275 9.0728188 13.462891 9.1367188 C 13.260193 9.1987187 13.09655 9.3765844 13.052734 9.5839844 C 13.074364 9.5029844 12.9896 9.6885594 12.828125 9.8808594 C 12.666641 10.072059 12.432233 10.304172 12.197266 10.513672 C 12.065322 10.631472 11.949753 10.714647 11.824219 10.810547 L 11.824219 10.699219 L 11.824219 10.662109 L 11.824219 8.2792969 C 11.824219 7.1100969 12.728238 6.1972656 13.871094 6.1972656 L 16.513672 6.1972656 L 16.552734 6.1972656 C 17.020407 6.1652656 17.48149 6.0021906 17.890625 5.7128906 C 18.103467 5.5622906 18.156645 5.2466594 18.300781 5.0058594 z M 13.796875 10.552734 C 14.214272 10.956734 14.601864 11.419241 15.099609 11.556641 C 15.854125 11.764941 16.623711 11.734678 17.332031 11.705078 C 18.040351 11.675078 18.701287 11.651187 19.193359 11.742188 C 19.633896 11.822187 19.925146 11.989437 20.162109 12.335938 L 20.162109 13.9375 C 20.162109 16.2947 18.308022 18.142578 15.992188 18.142578 C 13.676365 18.142578 11.824219 16.2947 11.824219 13.9375 L 11.824219 12.263672 C 11.941898 12.206672 12.043693 12.115016 12.160156 12.041016 C 12.440991 11.862616 12.705838 11.64975 12.978516 11.40625 C 13.251194 11.16305 13.513972 10.911263 13.722656 10.664062 C 13.752766 10.629062 13.768805 10.587134 13.796875 10.552734 z M 13.015625 18.478516 C 13.862733 19.042616 14.89867 19.333984 15.992188 19.333984 C 17.085711 19.333984 18.123595 19.042616 18.970703 18.478516 L 18.970703 20.488281 L 18.970703 20.748047 C 18.490961 21.646547 18.066435 22.593706 16.998047 23.503906 L 16.960938 23.539062 L 15.992188 24.433594 L 15.099609 23.539062 L 15.025391 23.466797 C 14.192321 22.567497 13.406184 21.501981 13.015625 20.488281 L 13.015625 18.478516 z M 11.378906 21.791016 L 10.634766 24.433594 L 10.634766 24.470703 L 10.634766 24.507812 C 10.522755 25.434413 11.527466 26.216347 12.382812 25.810547 L 12.382812 25.773438 L 14.578125 24.695312 L 15.396484 25.476562 L 15.396484 31 C 13.266941 30.915359 11.254691 30.391568 9.4433594 29.511719 L 9.4433594 28.826172 L 8.2519531 28.826172 L 8.2519531 28.865234 C 7.0519129 28.141409 5.9639635 27.257529 5.0136719 26.238281 C 5.3261661 25.523462 5.8437926 24.906189 6.5410156 24.507812 L 11.378906 21.791016 z M 12.568359 21.791016 C 12.949487 22.477416 13.327546 23.137862 13.833984 23.726562 L 11.861328 24.730469 C 11.816158 24.752469 11.812039 24.758203 11.824219 24.658203 L 12.568359 21.791016 z M 20.794922 21.865234 L 25.521484 24.582031 C 26.187939 24.962844 26.688561 25.550774 26.990234 26.232422 C 26.045193 27.246977 24.96402 28.127256 23.771484 28.849609 L 23.771484 28.826172 L 22.580078 28.826172 L 22.580078 29.5 C 21.259852 30.144155 19.83294 30.597905 18.330078 30.832031 C 18.357423 30.763692 18.375 30.689412 18.375 30.611328 C 18.375 30.282428 18.108167 30.015625 17.779297 30.015625 C 17.450425 30.015625 17.183593 30.282428 17.183594 30.611328 C 17.183594 30.745995 17.237072 30.865068 17.3125 30.964844 C 17.07316 30.985559 16.830323 30.992568 16.587891 31.001953 L 16.587891 25.513672 L 17.482422 24.695312 L 19.826172 25.810547 C 20.693221 26.203447 21.69573 25.452313 21.576172 24.507812 L 21.576172 24.433594 L 21.576172 24.396484 C 21.576172 24.396484 21.244085 23.391719 20.941406 22.386719 C 20.884326 22.197119 20.850147 22.046234 20.794922 21.865234 z M 19.603516 22.050781 C 19.672086 22.287981 19.714751 22.511012 19.789062 22.757812 C 20.078557 23.719112 20.35226 24.55465 20.384766 24.65625 C 20.394976 24.73625 20.384802 24.762216 20.310547 24.728516 L 18.300781 23.761719 C 18.852882 23.157419 19.310328 22.595181 19.603516 22.050781 z M 17.779297 27.634766 C 17.450425 27.634766 17.183593 27.901569 17.183594 28.230469 C 17.183594 28.559369 17.450425 28.826172 17.779297 28.826172 C 18.108168 28.826172 18.375 28.559369 18.375 28.230469 C 18.375 27.901569 18.108167 27.634766 17.779297 27.634766 z " transform="translate(0,1020.3622)" id="circle5472-7-9-9-8"/>
  </g>

	
	
	<metadata>
		<rdf:RDF xmlns:rdf="http://www.w3.org/1999/02/22-rdf-syntax-ns#" xmlns:rdfs="http://www.w3.org/2000/01/rdf-schema#" xmlns:dc="http://purl.org/dc/elements/1.1/">
			<rdf:Description about="https://iconscout.com/legal#licenses" dc:title="Office, Employee, Person, User, Avatar, Man, Businessman" dc:description="Office, Employee, Person, User, Avatar, Man, Businessman" dc:publisher="Iconscout" dc:date="2016-12-14" dc:format="image/svg+xml" dc:language="en">
				<dc:creator>
					<rdf:Bag>
						<rdf:li>Chamestudio</rdf:li>
					</rdf:Bag>
				</dc:creator>
			</rdf:Description>
		</rdf:RDF>
    </metadata></svg>
