<?xml version="1.0" encoding="UTF-8" standalone="no"?>
<svg xmlns:dc="http://purl.org/dc/elements/1.1/" xmlns:cc="http://creativecommons.org/ns#" xmlns:rdf="http://www.w3.org/1999/02/22-rdf-syntax-ns#" xmlns:svg="http://www.w3.org/2000/svg" xmlns="http://www.w3.org/2000/svg" xmlns:sodipodi="http://sodipodi.sourceforge.net/DTD/sodipodi-0.dtd" xmlns:inkscape="http://www.inkscape.org/namespaces/inkscape" width="200" height="200" viewBox="0 0 32 32.000001" id="svg2" version="1.1" inkscape:version="0.91 r13725" sodipodi:docname="19 office employee person user avatar woman businesswoman.svg">
  <defs id="defs4" style="zoom: 2">
    <pattern y="0" x="0" height="6" width="6" patternUnits="userSpaceOnUse" id="EMFhbasepattern"/>
    <pattern y="0" x="0" height="6" width="6" patternUnits="userSpaceOnUse" id="EMFhbasepattern-1"/>
    <inkscape:path-effect effect="spiro" id="path-effect4381-9-5-8" is_visible="true"/>
  </defs>
  <sodipodi:namedview id="base" pagecolor="#ffffff" bordercolor="#666666" borderopacity="1.0" inkscape:pageopacity="0.0" inkscape:pageshadow="2" inkscape:zoom="3.959798" inkscape:cx="36.911589" inkscape:cy="33.194893" inkscape:document-units="px" inkscape:current-layer="layer1" showgrid="true" units="px" inkscape:window-width="1366" inkscape:window-height="705" inkscape:window-x="-8" inkscape:window-y="-8" inkscape:window-maximized="1" inkscape:snap-bbox="true" inkscape:bbox-paths="true" inkscape:bbox-nodes="true" inkscape:snap-bbox-edge-midpoints="true" inkscape:snap-bbox-midpoints="true">
    <inkscape:grid type="xygrid" id="grid3470"/>
  </sodipodi:namedview>
  
  <g inkscape:label="Layer 1" inkscape:groupmode="layer" id="layer1" transform="translate(0,-1020.3622)">
    <path style="color:#000000;font-style:normal;font-variant:normal;font-weight:normal;font-stretch:normal;font-size:medium;line-height:normal;font-family:Sans;-inkscape-font-specification:Sans;text-indent:0;text-align:start;text-decoration:none;text-decoration-line:none;letter-spacing:normal;word-spacing:normal;text-transform:none;direction:ltr;block-progression:tb;writing-mode:lr-tb;baseline-shift:baseline;text-anchor:start;display:inline;overflow:visible;visibility:visible;fill:#000000;fill-opacity:1;stroke:none;stroke-width:1;marker:none;enable-background:accumulate" d="M 16 0 C 7.1691678 0 -2.7320386e-005 7.1692 0 16 C 2.9596951e-005 24.8308 7.1692079 32 16 32 C 24.830792 32 31.99997 24.8308 32 16 C 32.000027 7.1692 24.830832 0 16 0 z M 16 0.97070312 C 24.306769 0.97070312 31.031276 7.6933 31.03125 16 C 31.031236 20.062215 29.415651 23.737347 26.800781 26.441406 C 26.425166 26.829833 26.032566 27.202617 25.617188 27.548828 C 26.032401 27.20244 26.425176 26.829824 26.800781 26.441406 L 26.800781 26.375 C 26.800781 26.346 26.801258 26.30052 26.800781 26.261719 C 26.783981 24.903019 26.207189 23.614091 25.224609 22.775391 C 24.928593 22.522491 24.535938 22.317028 24.287109 22.173828 L 23.201172 21.537109 L 23.201172 8.8632812 C 23.201172 6.2929813 21.699425 4.0340813 19.525391 2.8632812 C 19.371951 2.7802812 19.237153 2.7089188 19.076172 2.6367188 C 18.938476 2.5757188 18.773115 2.5048188 18.625 2.4492188 C 17.807023 2.1430227 16.931 2 16 2 C 12.041355 2 8.8007814 5.0555813 8.8007812 8.8632812 L 8.8007812 21.576172 L 8.125 21.951172 C 7.703546 22.193772 7.0043642 22.576063 6.5507812 23.039062 C 5.8312662 23.773862 5.3720713 24.715591 5.2382812 25.775391 L 5.2382812 25.8125 C 5.2135773 26.008994 5.2043799 26.231621 5.2011719 26.443359 C 2.5851691 23.739118 0.96876362 20.06321 0.96875 16 C 0.9687243 7.6933 7.6932311 0.97070312 16 0.97070312 z M 16 3.2011719 C 16.787187 3.2011719 17.528246 3.3199719 18.212891 3.5761719 C 18.333573 3.6221719 18.465862 3.6725629 18.587891 3.7265625 C 18.721459 3.7865625 18.834407 3.8452625 18.962891 3.9140625 C 20.777921 4.8915625 22 6.7507813 22 8.8632812 L 22 20.863281 L 20.050781 19.738281 C 19.487116 19.413881 19.150391 18.834672 19.150391 18.201172 L 19.150391 16.701172 C 19.244711 16.601172 19.364524 16.506991 19.451172 16.400391 C 20.296539 15.360491 20.800781 14.0233 20.800781 12.6875 L 20.800781 9.8378906 C 20.800677 9.8538906 20.800781 9.8617812 20.800781 9.8007812 L 20.800781 8.5644531 C 20.809681 8.2837531 20.621512 8.0348437 20.349609 7.9648438 C 19.527784 7.7719432 18.772247 7.5451719 18.25 7.1386719 C 18.23673 7.1266719 18.226441 7.1105625 18.212891 7.1015625 C 18.143631 7.0615625 18.067523 7.0382969 17.988281 7.0292969 C 17.952111 7.0122969 17.913651 7.0001875 17.875 6.9921875 C 17.701025 6.9241875 17.534093 6.8418969 17.349609 6.8417969 C 17.04041 6.8417969 16.710906 6.9505781 16.451172 7.1425781 C 16.441472 7.1545781 16.421749 7.1305781 16.412109 7.1425781 C 16.13135 7.3448781 15.343775 7.4997781 14.462891 7.5175781 C 13.565662 7.5355781 12.594922 7.4804688 11.837891 7.4804688 C 11.533742 7.4804688 11.276318 7.7040594 11.238281 8.0058594 L 11.201172 8.3417969 C 11.199572 8.3667969 11.199572 8.3920156 11.201172 8.4160156 L 11.201172 9.8046875 L 11.201172 9.8398438 L 11.201172 12.689453 C 11.201172 14.025153 11.705418 15.360491 12.550781 16.400391 C 12.637431 16.507191 12.75529 16.600972 12.849609 16.701172 L 12.849609 17.601562 C 12.849609 18.593463 12.304483 19.533163 11.425781 20.039062 L 10 20.863281 L 10 8.8632812 C 10 5.7338812 12.652892 3.2011719 16 3.2011719 z M 17.349609 8.03125 L 17.349609 8.0351562 C 17.408359 8.0351562 17.448759 8.035666 17.5 8.0722656 C 17.5241 8.0862656 17.550322 8.098375 17.576172 8.109375 C 17.600272 8.123375 17.624541 8.1354844 17.650391 8.1464844 C 17.674491 8.1604844 17.698759 8.1725937 17.724609 8.1835938 C 17.734309 8.1955938 17.753892 8.1715937 17.763672 8.1835938 C 18.330587 8.5634936 18.960631 8.79675 19.599609 8.96875 L 19.599609 9.7949219 C 19.599609 9.7509219 19.599905 9.7830313 19.599609 9.8320312 L 19.599609 12.681641 C 19.599609 13.699041 19.186635 14.814878 18.513672 15.642578 C 17.840709 16.470378 16.943112 16.994141 16 16.994141 C 15.056908 16.994141 14.161253 16.470478 13.488281 15.642578 C 12.815309 14.815778 12.400391 13.698841 12.400391 12.681641 L 12.400391 9.8320312 L 12.400391 9.7949219 L 12.400391 8.6699219 C 13.028624 8.6889219 13.726952 8.7230313 14.5 8.7070312 C 15.480061 8.6880312 16.439837 8.6299592 17.162109 8.0683594 C 17.213389 8.0283594 17.290861 8.031252 17.349609 8.03125 z M 14.050781 17.675781 C 14.646328 18.011081 15.290391 18.201172 16 18.201172 C 16.709598 18.201172 17.355622 18.011081 17.951172 17.675781 L 17.951172 18.201172 C 17.951172 19.266472 18.523063 20.255062 19.451172 20.789062 L 20.349609 21.3125 C 20.349218 21.3245 20.349218 21.337609 20.349609 21.349609 C 20.349609 23.791409 18.370092 25.775391 15.925781 25.775391 C 13.48147 25.77539 11.5 23.791409 11.5 21.349609 L 12.025391 21.050781 C 13.246276 20.347781 14.023587 19.070081 14.050781 17.675781 z M 21.474609 21.951172 L 23.6875 23.226562 C 23.921905 23.361363 24.311145 23.604891 24.4375 23.712891 C 25.137804 24.310591 25.586914 25.237072 25.599609 26.263672 C 25.599876 26.285672 25.599609 26.347152 25.599609 26.376953 L 25.599609 27.566406 C 22.9962 29.729056 19.652104 31.03125 16 31.03125 C 12.347896 31.03125 9.0038004 29.729056 6.4003906 27.566406 L 6.4003906 27.013672 C 6.4003906 26.697272 6.409201 26.150181 6.4375 25.925781 C 6.53963 25.116781 6.8885695 24.399781 7.4140625 23.863281 C 7.6276005 23.645181 8.316019 23.238353 8.7265625 23.001953 L 10.375 22.025391 C 10.706721 24.806791 13.058205 26.976562 15.925781 26.976562 C 18.818063 26.976562 21.175857 24.766772 21.474609 21.951172 z M 5.2089844 26.453125 C 5.5810567 26.837241 5.9699301 27.205982 6.3808594 27.548828 C 5.9697935 27.206145 5.5811161 26.837173 5.2089844 26.453125 z " transform="translate(0,1020.3622)" id="path10740"/>
  </g>

	
	
	<metadata>
		<rdf:RDF xmlns:rdf="http://www.w3.org/1999/02/22-rdf-syntax-ns#" xmlns:rdfs="http://www.w3.org/2000/01/rdf-schema#" xmlns:dc="http://purl.org/dc/elements/1.1/">
			<rdf:Description about="https://iconscout.com/legal#licenses" dc:title="Office, Employee, Person, User, Avatar, Woman, Businesswoman" dc:description="Office, Employee, Person, User, Avatar, Woman, Businesswoman" dc:publisher="Iconscout" dc:date="2016-12-14" dc:format="image/svg+xml" dc:language="en">
				<dc:creator>
					<rdf:Bag>
						<rdf:li>Chamestudio</rdf:li>
					</rdf:Bag>
				</dc:creator>
			</rdf:Description>
		</rdf:RDF>
    </metadata></svg>
