<?xml version="1.0" encoding="UTF-8" standalone="no"?>
<svg xmlns:dc="http://purl.org/dc/elements/1.1/" xmlns:cc="http://creativecommons.org/ns#" xmlns:rdf="http://www.w3.org/1999/02/22-rdf-syntax-ns#" xmlns:svg="http://www.w3.org/2000/svg" xmlns="http://www.w3.org/2000/svg" version="1.1" width="64px" height="64px" id="svg4227">
  <defs id="defs4229"/>
  
  <g transform="translate(0,-1020.3622)" id="layer1">
    <path d="m 16,1020.3622 c -8.7977301,0 -16.000000099999997,7.2023 -16.000000099999997,16 0,8.7977 7.202269999999998,16 16.000000099999997,16 8.79773,0 16,-7.2023 16,-16 0,-8.8915 -7.20606,-16 -16,-16 z m 0,1 c 8.25606,0 15,6.6478 15,15 0,3.1829 -1.01197,6.1281 -2.71875,8.5625 0,-0.6167 -0.30686,-1.1298 -0.6875,-1.5 -0.38064,-0.3702 -0.84976,-0.6561 -1.25,-0.9062 a 0.50005,0.50005 0 0 0 -0.0312,0 c -2.31153,-1.2842 -4.7817,-2.4309 -6.375,-3.1563 0.43796,-0.569 0.81548,-1.2072 1.0625,-1.9062 0.58323,-0.059 1.07889,-0.4128 1.375,-0.9063 0.32303,-0.5384 0.46875,-1.2106 0.46875,-1.9375 0,-0.4672 -0.10972,-0.9117 -0.25,-1.3125 0.47418,-1.1228 0.73435,-2.2985 0.71875,-3.4687 -0.0266,-1.9962 -0.86031,-3.9194 -2.5625,-5.3125 l 0,-0.031 c -1.32092,-1.1031 -2.98046,-1.8753 -4.625,-2.0625 -1.65295,-0.1881 -3.34432,0.2382 -4.46875,1.5313 -0.50047,0.5838 -1.34309,0.9577 -2.0312499,1.5312 a 0.50005,0.50005 0 0 0 -0.0313,0.031 c -1.9780112,1.978 -2.0619182,4.941 -1.09375,7.4687 -0.229558,0.4902 -0.34375,1.0724 -0.34375,1.6875 0,0.7397 0.1975,1.4065 0.53125,1.9375 0.288822,0.4595 0.703777,0.8097 1.21875,0.9063 0.3038509,0.8332 0.7503829,1.5771 1.3124999,2.2187 -1.3508189,0.6361 -3.3089141,1.5879 -6.0312501,3.0625 a 0.50005,0.50005 0 0 0 0,0.031 c -0.49971,0.2776 -0.88157,0.6032 -1.125,1.0312 -0.189829,0.3337 -0.276431,0.7166 -0.3125,1.125 -1.731093,-2.4451 -2.75,-5.4173 -2.75,-8.625 0,-8.2523 6.74773,-15 15.0000001,-15 z m -1.03125,2.0313 c 0.33224,-0.025 0.67574,-0.01 1.03125,0.031 1.42205,0.1619 2.9491,0.856 4.125,1.8438 1.48404,1.2057 2.16422,2.8477 2.1875,4.5937 0.0161,1.2041 -0.3731,2.4058 -0.96875,3.5625 l 0,-0.125 c 4.8e-4,-0.011 -3.9e-4,-0.02 0,-0.031 0.0455,-1.2916 -0.53689,-2.3787 -1.40625,-3.0938 -0.87677,-0.7212 -2.02639,-1.0937 -3.1875,-1.0937 l -3.3125,0 c -0.90882,0 -1.83345,0.1413 -2.59375,0.5 -0.7603,0.3586 -1.4062499,1.0254 -1.4062499,1.9062 l 0,0.7813 c -0.72047,-2.1505 -0.67218,-4.4545 0.8437499,-6 0.008,-0.01 0.02285,-0.024 0.03125,-0.031 0.51726,-0.4194 1.43674,-0.822 2.125,-1.625 0.65668,-0.7552 1.53453,-1.1435 2.53125,-1.2187 z m -2.125,6.6875 c 0.19512,-0.017 0.39596,0 0.59375,0 l 3.3125,0 c 0.93889,0 1.88927,0.3212 2.5625,0.875 0.67323,0.5537 1.07446,1.2873 1.03125,2.2812 a 0.50005,0.50005 0 0 0 0,0.031 l 0,2 a 0.50005,0.50005 0 0 0 0.90625,0.3125 c 0.21859,-0.2691 0.40868,-0.5575 0.59375,-0.8438 -0.0196,0.518 -0.15722,0.9704 -0.34375,1.2813 -0.20197,0.3366 -0.40995,0.4687 -0.65625,0.4687 a 0.50005,0.50005 0 0 0 -0.0312,0 0.50005,0.50005 0 0 0 -0.0312,0 0.50005,0.50005 0 0 0 -0.0312,0 0.50005,0.50005 0 0 0 -0.21875,0 0.50005,0.50005 0 0 0 -0.34375,0.375 c -0.30708,1.0752 -0.98439,2.0448 -1.78125,2.7813 -0.98692,0.9121 -2.1977,1.4375 -2.96875,1.4375 -0.70264,0 -1.76196,-0.4478 -2.6875,-1.2188 -0.88569,-0.7378 -1.6455,-1.7521 -2,-2.9062 a 0.50437539,0.50437539 0 0 0 -0.46875,-0.375 0.50005,0.50005 0 0 0 -0.0625,0 0.50437539,0.50437539 0 0 0 -0.03125,0 0.50005,0.50005 0 0 0 -0.03125,0 c -0.1708299,0 -0.4087499,-0.156 -0.6249999,-0.5 -0.21625,-0.3441 -0.375,-0.846 -0.375,-1.4063 0,-0.099 0.02361,-0.1869 0.03125,-0.2812 0.107487,0.1843 0.22619,0.3861 0.34375,0.5625 a 0.50005,0.50005 0 0 0 0.9062499,-0.2813 l 0,-2.375 0,-0.8125 c 0,-0.4192 0.27905,-0.7336 0.84375,-1 0.423525,-0.1998 0.97715,-0.3544 1.5625,-0.4062 z m 6.875,10.3125 c 1.58473,0.7223 3.91038,1.7887 6.09375,3 0.009,0.01 0.0221,0 0.0312,0 0.39177,0.2451 0.76718,0.4931 1.03125,0.75 0.26936,0.2619 0.40625,0.4979 0.40625,0.7812 l 0,1.1875 a 0.50005,0.50005 0 0 0 0,0.062 0.50005,0.50005 0 0 0 0,0.031 c -2.75448,3.1448 -6.79601,5.1562 -11.28125,5.1562 -4.493495,0 -8.5264431,-2.0326 -11.2812501,-5.1875 l 0,-0.8437 c 0,-0.45 0.0872,-0.7375 0.21875,-0.9688 0.12586,-0.2213 0.35113,-0.445 0.71875,-0.6562 0.0167,-0.01 0.01395,-0.022 0.03125,-0.031 2.5938172,-1.4036 4.4756751,-2.3372 5.8125001,-2.9687 0.0037,0.2354 0.04698,0.4567 0.09375,0.6875 0.43667,2.1544 2.61432,3.5782 4.84375,3.1562 2.04747,-0.3875 3.40548,-2.1969 3.28125,-4.1562 z m -0.96875,0.2187 c 0.005,1.4121 -1.01032,2.6868 -2.5,2.9688 -1.68992,0.3198 -3.32525,-0.7419 -3.65625,-2.375 -0.0171,-0.084 -0.0218,-0.1653 -0.0312,-0.25 0.94301,0.6858 1.94579,1.125 2.875,1.125 1.07106,0 2.25619,-0.5816 3.3125,-1.4688 z" id="path3979" style="font-size:medium;font-style:normal;font-variant:normal;font-weight:normal;font-stretch:normal;text-indent:0;text-align:start;text-decoration:none;line-height:normal;letter-spacing:normal;word-spacing:normal;text-transform:none;direction:ltr;block-progression:tb;writing-mode:lr-tb;text-anchor:start;baseline-shift:baseline;color:#000000;fill:#000000;fill-opacity:1;stroke:none;stroke-width:1;marker:none;visibility:visible;display:inline;overflow:visible;enable-background:accumulate;font-family:Sans;-inkscape-font-specification:Sans"/>
  </g>

	
	
	<metadata>
		<rdf:RDF xmlns:rdf="http://www.w3.org/1999/02/22-rdf-syntax-ns#" xmlns:rdfs="http://www.w3.org/2000/01/rdf-schema#" xmlns:dc="http://purl.org/dc/elements/1.1/">
			<rdf:Description about="https://iconscout.com/legal#licenses" dc:title="User, Account, Profile, Avatar, Person, Student, Male" dc:description="User, Account, Profile, Avatar, Person, Student, Male" dc:publisher="Iconscout" dc:date="2016-12-14" dc:format="image/svg+xml" dc:language="en">
				<dc:creator>
					<rdf:Bag>
						<rdf:li>Mohit Gandhi</rdf:li>
					</rdf:Bag>
				</dc:creator>
			</rdf:Description>
		</rdf:RDF>
    </metadata></svg>
